<svg xmlns="http://www.w3.org/2000/svg" style="position:absolute;" width="355" height="85.22974929439683" viewBox="0 -4 370.38798525402706 88.92415528128866" class="css-1j8o68f"><defs id="SvgjsDefs1638"></defs><g id="SvgjsG1639" featurekey="symbolFeature-0" transform="matrix(1.687825257628271,0,0,1.687825257628271,-20.717603695565128,-25.807172470922954)" fill="#364f6b"><path xmlns="http://www.w3.org/2000/svg" d="M26.755,40.782c-0.129,0.329-0.083,0.517-0.083,0.517l0.169,2.441c-0.084,3.34-1.546,4.432-1.546,4.432l2.068,13.305  c-2.352-0.847-4.557-1.982-6.574-3.356l-0.86-9.6c0,0-0.462-0.233-1.381-0.656c-0.917-0.422-1.878-1.608-2.123-2.014  c-0.24-0.407-0.808-1.545-2.189-2.587c-1.378-1.043-1.511-0.545-1.875-1.178c-0.366-0.631,0.551-1.029,0.551-1.029  s2.548-0.497,4.701,2.189c0,0,0.065-0.017,0.181-0.033l0.03-0.102c-0.026,0.003-0.041,0.003-0.041,0.003  c0.014-0.002,0.027-0.003,0.042-0.004l0.129-0.435c0,0,0.005-0.068,0.012-0.176c0.688-0.014,3.184,0.096,4.237,2.329  c0.066,0.106,0.133,0.214,0.198,0.329c0,0-0.198-3.129-4.434-2.666c0.021-0.337,0.059-1.051,0.019-1.391  c-0.054-0.452-0.25-0.887-0.25-0.887l-2.182-5.145c0,0-0.416-0.867,0.356-1.273c0.771-0.406,1.192,0.293,1.192,0.293  s2.312,4.621,2.573,5.193c0.261,0.571,0.609-0.167,0.609-0.167l-0.833-6.175c0,0-0.24-1.009,0.843-1.235  c1.083-0.224,1.178,1.381,1.178,1.381s0.729,5.316,0.827,5.933c0.099,0.616,0.437,0.021,0.437,0.021s0.815-5.113,0.894-5.654  c0.082-0.542,0.25-1.141,1.05-1.115c0.8,0.025,0.69,1.75,0.69,1.75s-0.611,5.189-0.638,5.578c-0.026,0.39,0.229,0.287,0.229,0.287  s1.937-3.994,2.095-4.278c0.16-0.286,0.471-0.903,1.257-0.585c0.785,0.316,0.005,2.051,0.005,2.051S26.886,40.455,26.755,40.782z   M62.189,38.072c-0.664-0.455-1.08,0.055-1.285,0.284c-0.205,0.231-2.815,3.544-2.815,3.544s-0.257,0.042-0.153-0.312  c0.104-0.356,1.729-5.043,1.729-5.043s0.452-1.58-0.283-1.768s-1.014,0.335-1.202,0.82c-0.181,0.484-1.98,5.062-1.98,5.062  s-0.438,0.484-0.4-0.105c0.034-0.592,0.441-5.674,0.441-5.674s0.24-1.508-0.811-1.521c-1.053-0.011-1.031,0.974-1.031,0.974  L53.91,40.23c0,0-0.475,0.615-0.6,0.032c-0.125-0.585-1.328-5.343-1.328-5.343s-0.246-0.736-1.045-0.516  c-0.799,0.219-0.59,1.108-0.59,1.108l0.975,5.217c0,0,0.094,0.442,0.052,0.873c-0.031,0.316-0.204,0.945-0.295,1.262  c3.879,0.485,3.438,3.358,3.438,3.358c-0.037-0.121-0.078-0.236-0.119-0.349c-0.49-2.147-2.548-2.815-3.324-2.993  c-0.03,0.106-0.051,0.175-0.051,0.175l-0.209,0.377c-0.015-0.002-0.026-0.003-0.043-0.005c0,0,0.017,0.002,0.043,0.006l-0.049,0.089  c-0.111-0.008-0.176-0.007-0.176-0.007c-1.449-2.932-3.913-2.99-3.913-2.99s-0.934,0.184-0.724,0.843  c0.209,0.663,0.436,0.229,1.502,1.476c1.068,1.248,1.363,2.42,1.504,2.846c0.143,0.426,0.792,1.725,1.559,2.301  c0.765,0.579,1.146,0.891,1.146,0.891l-1.475,11.54c2.2-1.034,4.241-2.331,6.086-3.845l0.433-6.925c0,0,1.579-0.713,2.338-3.795  l0.34-2.298c0,0-0.004-0.184,0.185-0.462c0.187-0.279,2.205-3.122,2.205-3.122S62.854,38.525,62.189,38.072z M51.367,19.826  c-1.208-0.662-1.832,0.273-2.145,0.702c-0.312,0.428-4.209,6.508-4.209,6.508s-0.43,0.117-0.312-0.506  c0.116-0.625,2.104-8.887,2.104-8.887s0.506-2.766-0.779-2.962c-1.285-0.194-1.676,0.741-1.909,1.599  c-0.234,0.857-2.533,8.963-2.533,8.963s-0.663,0.897-0.701-0.117s-0.194-9.743-0.194-9.743s0.156-2.612-1.638-2.456  c-1.793,0.156-1.598,1.833-1.598,1.833l0.155,10.132c0,0-0.702,1.129-1.014,0.156c-0.311-0.975-3.156-8.886-3.156-8.886  s-0.546-1.209-1.871-0.702c-1.325,0.507-0.819,1.988-0.819,1.988l2.534,8.73c0,0,0.233,0.741,0.233,1.48  c0,0.741-0.351,2.534-0.351,2.534l-0.035,0.081c6.907,0.081,6.622,5.158,6.622,5.158c-0.082-0.195-0.165-0.377-0.252-0.559  c-1.257-3.792-5.23-4.468-6.376-4.585l-0.251,0.582c-0.024,0-0.046-0.001-0.07-0.001c0,0,0.024,0.001,0.069,0.004l-0.069,0.159  c-0.19,0.006-0.299,0.02-0.299,0.02c-2.96-4.756-7.17-4.444-7.17-4.444s-1.559,0.468-1.088,1.559  c0.468,1.091,0.779,0.313,2.806,2.26c2.026,1.949,2.728,3.898,3.04,4.599c0.312,0.703,1.637,2.807,3.04,3.663  c1.401,0.858,2.104,1.326,2.104,1.326l-0.672,23.079c0.966,0.094,1.946,0.143,2.938,0.143c2.5,0,4.927-0.306,7.241-0.879  l-0.778-21.875c0,0,2.573-1.48,3.352-6.859l0.194-3.976c0,0-0.038-0.312,0.232-0.819c0.274-0.505,3.235-5.689,3.235-5.689  S52.574,20.489,51.367,19.826z"></path></g><g id="SvgjsG1640" featurekey="nameFeature-0" transform="matrix(0.9016411689754142,0,0,0.9016411689754142,101.98965682860431,16.717181497969108)" fill="#364f6b"><path d="M35.214 21.902 l-27.18 0.000039062 l0 4.3726 l18.128 0.0675 l-0.017266 4.6956 l-18.111 -0.0675 l0 4.3564 l27.18 0 l0 4.6954 l-31.875 0 l0 -22.815 l31.875 0 l0 4.6951 z M52.378 35.238 l27.18 0 l0 4.6954 l-31.875 0 l0 -22.815 l4.6954 0 l0 18.119 z M123.94200000000001 21.902 l-27.18 0.000039062 l0 4.3726 l18.128 0.0675 l-0.017266 4.6956 l-18.111 -0.0675 l0 4.3564 l27.18 0 l0 4.6954 l-31.875 0 l0 -22.815 l31.875 0 l0 4.6951 z M164.931 35.3 l0.080272 4.6484 l-2.3241 0.04004 c-0.030078 0.0005078 -2.055 0.034258 -6.0152 0.034258 c-2.0063 0 -4.5092 -0.0089064 -7.5012 -0.034805 c-4.8264 -0.042108 -8.6856 -1.0842 -11.47 -3.0979 c-2.767 -2.0014 -4.2908 -4.9124 -4.2908 -8.1972 c0 -3.2826 1.5371 -6.2004 4.328 -8.2148 c2.766 -1.9969 6.7232 -3.0621 11.444 -3.0804 c8.882 -0.034258 13.438 0.00054688 13.483 0.00082032 l2.3244 0.01832 l-0.036641 4.6492 l-2.3244 -0.01832 c-0.044728 -0.0005078 -4.5784 -0.035039 -13.429 -0.00078124 c-6.8716 0.02668 -11.14 2.5732 -11.14 6.6464 c0 1.8039 0.79624 3.2946 2.3662 4.43 c1.9587 1.4167 4.9968 2.1832 8.7852 2.2161 c8.8288 0.077148 13.352 0.0017969 13.396 0.0010156 z M177.5145 16.95 l31.875 0 l0 4.6954 l-13.591 0 l0 18.186 l-4.6951 0 l0 -18.186 l-13.589 0 l0 -4.6954 z M251.769 19.299 c1.8355 1.8198 1.8204 4.452 1.7971 8.4364 c-0.0018359 0.29664 -0.0033984 0.604 -0.0046876 0.92236 c-0.0089064 2.3647 -0.015195 4.0732 -0.26344 5.514 c-0.21137 1.2284 -0.69948 2.9991 -2.4872 4.1908 c-2.2642 1.5093 -5.6464 1.5434 -13.056 1.6174 c-1.1572 0.011524 -2.2245 0.020156 -3.2091 0.020156 c-5.8708 0 -8.822 -0.31074 -10.708 -2.1844 c-1.964 -1.9514 -1.953 -4.8252 -1.9368 -9.1752 c0.018047 -4.8536 0.029024 -7.7832 2.4894 -9.602 c2.1227 -1.569 5.2056 -1.6103 11.96 -1.7011 l1.3479 -0.018555 c8.4176 -0.12031 11.902 -0.17027 14.071 1.9805 z M248.903 27.708 c0.013086 -2.2896 0.026914 -4.6576 -0.41728 -5.0976 c-0.55112 -0.54644 -3.0246 -0.67276 -6.3168 -0.67276 c-1.3547 0 -2.8484 0.021445 -4.4036 0.043672 l-1.3521 0.018555 c-4.8388 0.064884 -8.3348 0.11195 -9.25 0.78812 c-0.5776 0.42692 -0.587 2.9488 -0.59796 5.8692 c-0.010195 2.7118 -0.019883 5.2732 0.56032 5.8496 c0.9108 0.90508 5.8276 0.85564 10.583 0.80856 c5.4604 -0.054412 9.4056 -0.093908 10.516 -0.8342 c0.65372 -0.4358 0.66208 -2.7032 0.67384 -5.8416 c0.0010547 -0.32148 0.0028906 -0.632 0.0047264 -0.93176 z M294.699 35.114 l2.324 -0.034844 l0.069572 4.6484 l-2.3241 0.034805 c-0.36176 0.005508 -0.77084 0.011797 -1.2174 0.011797 c-3.2279 0 -8.4052 -0.32016 -11.676 -3.5423 c-1.456 -1.4345 -2.3731 -3.258 -2.7396 -5.44 l-8.4109 0 l-0.033203 8.9792 l-4.6492 -0.017266 l0.074804 -20.255 l0 -2.327 l0.0086328 0 l0 -0.0086328 l2.3223 0.0086328 l21.902 0 c2.9457 0 7.3276 1.8136 7.3276 6.8096 c0 4.9964 -4.0724 6.81 -6.8096 6.81 l-6.9651 0 c0.25086 0.8504 0.65684 1.5585 1.2347 2.1279 c2.337 2.3019 7.216 2.2292 9.5608 2.1939 z M270.7668 26.143 l20.081 -0.000039062 c0.20297 -0.0070704 0.80852 -0.083436 1.3076 -0.35942 c0.43216 -0.2391 0.87372 -0.64012 0.87372 -1.8015 c0 -0.93384 -0.31598 -1.4394 -1.1276 -1.8033 c-0.73764 -0.33062 -1.543 -0.3573 -1.5506 -0.3573 l-19.584 0 l0 4.3216 z"></path></g></svg>